<svg width="32" height="32" viewBox="0 0 32 32" fill="none" xmlns="http://www.w3.org/2000/svg">
<path fill-rule="evenodd" clip-rule="evenodd" d="M6 9C6 8.44772 6.44772 8 7 8H25C25.5523 8 26 8.44772 26 9C26 9.55228 25.5523 10 25 10H7C6.44772 10 6 9.55228 6 9ZM6 15.9565C6 15.4042 6.44772 14.9565 7 14.9565H25C25.5523 14.9565 26 15.4042 26 15.9565C26 16.5088 25.5523 16.9565 25 16.9565H7C6.44772 16.9565 6 16.5088 6 15.9565ZM7 21.913C6.44772 21.913 6 22.3608 6 22.913C6 23.4653 6.44772 23.913 7 23.913H25C25.5523 23.913 26 23.4653 26 22.913C26 22.3608 25.5523 21.913 25 21.913H7Z" fill="#F7EFFF"></path>
</svg>
