<svg width="24" height="24" viewBox="0 0 24 24" fill="none" xmlns="http://www.w3.org/2000/svg">
<path fill-rule="evenodd" clip-rule="evenodd" d="M5.29289 17.3137C4.90237 17.7042 4.90237 18.3374 5.29289 18.7279C5.68342 19.1184 6.31658 19.1184 6.70711 18.7279L12.0104 13.4246L17.3137 18.7279C17.7042 19.1184 18.3374 19.1184 18.7279 18.7279C19.1184 18.3374 19.1184 17.7042 18.7279 17.3137L13.4246 12.0104L18.7279 6.70711C19.1184 6.31658 19.1184 5.68342 18.7279 5.29289C18.3374 4.90237 17.7042 4.90237 17.3137 5.29289L12.0104 10.5962L6.70711 5.29289C6.31658 4.90237 5.68342 4.90237 5.29289 5.29289C4.90237 5.68342 4.90237 6.31658 5.29289 6.70711L10.5962 12.0104L5.29289 17.3137Z" fill="#F7EFFF"></path>
</svg>
