<svg width="13" height="13" viewBox="0 0 13 13" fill="none" xmlns="http://www.w3.org/2000/svg">
<g opacity="0.6">
<path d="M10.7187 5.58553L4.79128 11.511L3.92961 10.6492L4.01857 10.5603H2.8468C2.62313 10.5603 2.44012 10.3772 2.44012 10.1535V8.98167L2.35141 9.07064C2.23118 9.19265 2.14298 9.34009 2.09494 9.50278L1.51084 11.4906L3.4975 10.906C3.6373 10.8577 3.8076 10.7687 3.92961 10.6492L4.79128 11.511C4.52693 11.7753 4.19904 11.9711 3.84065 12.0753L0.782104 12.9752C0.568085 13.0387 0.336528 12.9803 0.178682 12.7998C0.0208319 12.665 -0.0381835 12.4337 0.0248021 12.2177L0.924445 9.15961C1.03018 8.80118 1.22412 8.47326 1.48872 8.2089L7.41441 2.28193L10.7187 5.58553ZM12.5234 1.47891C13.1589 2.11416 13.1589 3.1452 12.5234 3.7807L11.2932 5.01104L7.98885 1.70693L9.21908 0.47659C9.85453 -0.158863 10.8865 -0.158863 11.5219 0.47659L12.5234 1.47891Z" fill="#F7EFFF"/>
</g>
</svg>
